<?xml version="1.0" encoding="utf-8"?>
<!-- Generator: Adobe Illustrator 23.0.1, SVG Export Plug-In . SVG Version: 6.00 Build 0)  -->
<svg version="1.1" id="Layer_1" xmlns="http://www.w3.org/2000/svg" xmlns:xlink="http://www.w3.org/1999/xlink" x="0px" y="0px"
	 viewBox="0 0 236.22 198.92" style="enable-background:new 0 0 236.22 198.92;" xml:space="preserve">
<style type="text/css">
	.st0{fill:#F8B1AB;}
</style>
<g>
	<path class="st0" d="M69.56,52.54c0-1.35-0.25-2.94-0.49-4.29c4.55-0.76,8.65-1.15,11.12-1.29c-0.83,2.29-1.99,5.21-3.29,8.27
		c-1.96,4.53-3.67,9.55-3.67,10.9c0,1.71,1.71,3.06,3.18,3.06c0.73,0,1.84-2.33,2.82-4.78c1.1-2.69,2.45-5.39,3.55-6.98
		c4.04-5.88,11.88-13.35,13.47-13.35c0.61,0,0.73,0.25,0.73,0.61c0,0.61-0.86,2.2-0.86,3.31c0,1.47,1.1,2.45,2.45,2.45
		c3.55,0,4.53-3.55,4.53-7.72c0-3.06-1.96-4.65-4.65-4.65c-3.18,0-7.72,3.92-12.74,9.06c0.23-0.6,0.46-1.19,0.67-1.76
		c0.09-0.17,0.15-0.35,0.2-0.54c0.7-1.88,1.21-3.45,1.21-4.07c0-1.35-1.1-2.21-2.69-2.21c-1.42,0-2.25,0.97-2.98,2.7
		c-0.11,0-0.21-0.01-0.32-0.01c-2.57,0-7.84,0.86-14.94,2.21c-2.33-3.18-5.51-5.27-7.47-6c11.14-6.12,19.1-16.29,19.1-25.96
		c0-5.02-3.8-9.67-14.82-9.67C35.03,1.84,0,24.86,0,43.11c0,3.18,1.35,4.9,3.67,4.9c2.2,0,4.53-1.84,4.53-3.92
		c0-1.22-0.98-2.21-0.98-3.31c0-11.88,33.19-33.8,54.62-33.8c5.14,0,9.55,1.47,9.55,6c0,10.78-14.08,19.96-22.78,22.53
		c-4.9,1.47-6.61,1.59-6.61,4.78c0,1.35,0.61,2.2,2.2,2.2c0.86,0,2.2-0.61,6.37-0.61c3.92,0,6.98,1.23,9.06,2.94
		c-7.59,1.84-17.02,4.65-28.17,10.41c1.59-4.65,4.41-11.02,8.21-17.76c4.53-7.96,9.8-13.47,12.98-16.53
		c1.96-1.96,3.67-3.8,3.67-5.14c0-1.71-1.22-3.31-3.31-3.31c-2.2,0-9.67,5.76-19.35,23.39c-5.27,9.43-8.08,17.39-9.55,23.02
		C11.51,66.87,0.25,77.15,0.25,86.71c0,7.23,5.02,12.49,14.21,12.49C39.07,99.2,69.56,72.99,69.56,52.54z M15.31,93.81
		c-4.53,0-9.31-2.21-9.31-6.98c0-6,6.86-13.72,16.66-20.33c-0.24,1.1-0.24,2.57-0.24,2.82c0,2.69,2.45,4.16,4.29,4.16
		c2.08,0,2.33-2.69,2.33-4.04c0-2.2,0.12-4.41,0.49-6.86c14.33-8.45,24.86-11.14,32.82-12.86c0.24,0.98,0.24,2.21,0.24,3.18
		C62.58,70.79,34.54,93.81,15.31,93.81z"/>
	<path class="st0" d="M234.26,45.93c-1.35,0-2.94,1.96-4.41,3.8c-4.41,5.39-12.61,14.82-22.9,14.82c-2.33,0-3.43-2.33-3.43-3.31
		c0-0.86,0.49-1.71,2.08-2.08c8.08-1.84,18.37-9.06,18.37-15.43c0-2.69-2.82-4.65-5.39-4.65c-4.63,0-10.35,2.86-14.92,8.59
		c-0.58,0.63-1.17,1.35-1.74,2.06c-4.16,5.63-11.27,14.21-16.53,14.21c-3.55,0-5.88-3.31-6-4.65c4.53-2.2,14.82-7.96,14.82-15.19
		c0-2.94-2.45-4.78-4.53-4.78c-4.04,0-10.9,3.67-20.33,13.72c0.61-1.96,2.45-5.88,2.94-6.37c7.1-5.88,14.45-12.49,19.96-20.08
		c7.84-11.14,9.55-18.37,9.55-21.8c0-2.33-2.33-4.78-4.78-4.78c-6.37,0-13.72,7.23-20.33,20.08c-2.74,5.36-6.7,14.8-10.1,23.77
		c-0.78,0.37-1.7,0.91-2.39,1.21c-2.2,0.98-4.29,1.84-7.35,1.84c-1.22,0-1.59-2.82-1.59-3.67c0-2.08-2.21-4.41-6.98-4.41
		c-3.57,0-7.53,2.04-10.87,5.29c-0.64,0.33-1.33,0.72-1.87,0.95c-2.21,0.98-4.29,1.84-7.35,1.84c-1.22,0-1.59-2.82-1.59-3.67
		c0-2.08-2.2-4.41-6.98-4.41c-8.2,0-18.49,10.78-18.49,22.29c0,5.51,3.55,8.33,7.23,8.33c8.7,0,14.21-9.43,17.02-16.66
		c0.86,0,3.6-0.12,6.51-0.83c-1.31,2.86-2.1,5.98-2.1,9.16c0,5.51,3.55,8.33,7.22,8.33c8.7,0,14.21-9.43,17.02-16.66
		c1.21,0,6.12-0.24,10.01-2.02c-2.49,7.02-4.26,12.87-4.26,14.87c0,3.31,2.33,4.04,3.67,4.04c1.47,0,3.31-1.71,3.31-3.55
		c0-2.57,2.82-6.12,6.86-10.65c6.37-6.98,11.63-10.41,12.98-10.41c0.61,0,1.35,0.37,1.35,1.35c0,3.43-8.57,8.7-11.63,9.8
		c-1.96,0.73-2.33,1.47-2.33,2.57c0,2.69,3.06,10.16,9.92,10.16c4.8,0,9.42-3.1,13.51-7.05c0.41,4.76,3.65,7.54,7.43,7.54
		c13.59,0,23.51-10.53,29.27-17.64c1.47-1.84,2.08-2.69,2.08-4.04C236.22,46.54,235.37,45.93,234.26,45.93z M181.97,22.53
		c4.65-9.31,10.9-17.27,13.47-17.27c0.86,0,1.22,0.49,1.22,1.35c0,1.84-2.82,8.21-8.69,16.78c-4.29,6.25-9.67,11.39-12.49,14.08
		C175.61,37.11,177.56,31.35,181.97,22.53z M109.72,64.54c-1.22,0-2.57-1.35-2.57-3.18c0-7.47,6.74-15.92,11.63-16.17
		c-0.25,0.74-0.49,1.71-0.49,2.45c0,1.35,1.22,2.82,1.96,2.94C120.26,53.64,114.26,64.54,109.72,64.54z M138.38,64.54
		c-1.22,0-2.57-1.35-2.57-3.18c0-7.47,6.74-15.92,11.63-16.17c-0.25,0.74-0.49,1.71-0.49,2.45c0,1.35,1.22,2.82,1.96,2.94
		C148.91,53.64,142.91,64.54,138.38,64.54z M217,44.58c0.73,0,0.98,0.49,0.98,1.22c0,2.08-8.33,8.08-12.74,8.94
		C207.57,51.07,214.06,44.58,217,44.58z"/>
	<path class="st0" d="M128.67,157.28c2.33,0,7.71-2.69,7.71-4.9c0-0.86-0.37-1.1-1.47-1.1c-0.86,0-1.71,0.49-4.41,0.49
		c-4.04,0-9.8-5.88-14.33-12.98c-4.53-7.1-9.31-17.39-11.02-22.78c5.02-1.59,13.84-4.65,23.39-11.88
		c9.55-7.23,16.9-16.41,18.62-18.74c1.35-1.96,3.18-4.65,3.18-6.74c0-1.96-0.49-3.18-2.69-3.18c-2.08,0-2.94,1.35-4.9,4.53
		c-2.82,5.27-8.57,12.25-17.88,19.47c-6.12,4.78-14.33,8.33-19.1,10.41c4.9-10.16,9.06-20.7,9.06-25.23c0-5.27-3.92-8.82-8.33-8.82
		c-16.17,0-41.39,18-41.39,29.27c0,2.33,0.86,4.04,3.43,4.04s3.8-2.2,3.8-5.63c0-6.25,19.96-21.31,32.33-21.31
		c1.96,0,3.18,1.23,3.18,3.43c0,3.92-4.53,14.7-9.8,26.33c-3.06,6.86-11.51,24.13-11.51,29.27c0,1.96,1.35,3.43,3.18,3.43
		c3.06,0,3.8-2.21,3.8-4.29c0-2.57,5.27-14.82,6.74-18.49c2.82,6.74,5.76,13.59,10.53,20.94
		C116.67,151.89,123.77,157.28,128.67,157.28z"/>
	<path class="st0" d="M154.63,150.05c-0.61,0-1.47,0.12-2.08,0.24c0.25-3.67,0.74-8.08,1.84-23.88c0.25-3.8,1.1-6.49,1.71-8.08
		c0.37-0.86,0.49-1.59,0.49-2.33c0-1.96-1.47-2.21-2.57-2.21s-3.8,1.35-4.9,2.33c-0.61,0.49-2.45,3.67-4.29,6.25
		c-2.33,3.55-10.9,15.06-13.84,15.06c-0.61,0-0.74-0.49-0.74-1.22c0-1.1,3.31-11.02,5.76-14.82c1.47-2.33,2.45-3.67,2.45-4.78
		c0-1.35-1.1-2.57-3.18-2.57c-2.2,0-4.04,2.2-5.76,6.37c-1.59,3.67-5.39,14.45-5.39,17.88c0,3.55,2.2,5.39,4.65,5.39
		c6.61,0,16.66-13.35,19.72-18c0,1.84-1.35,16.04-2.33,25.35c-2.33,0.98-12.12,5.88-19.23,13.72c-8.57,9.31-12.12,19.59-12.12,25.35
		c0,5.51,4.16,8.82,8.82,8.82c15.43,0,25.72-25.72,28.17-43.72c0.86-0.25,2.2-0.37,2.69-0.37c3.31,0,5.63,1.35,5.63,2.45
		c0,1.47-0.37,2.2-0.37,3.18c0,1.71,0.86,2.94,3.06,2.94c2.69,0,3.92-2.57,3.92-4.9C166.75,152.75,160.51,150.05,154.63,150.05z
		 M123.89,194.26c-1.84,0-3.43-1.71-3.43-3.8c0-4.41,2.82-13.23,9.55-20.58c6.37-7.1,13.47-11.88,15.8-13.1
		C144.34,169.52,134.91,194.26,123.89,194.26z"/>
	<path class="st0" d="M218.31,120.29c-1.35,0-2.94,1.96-4.41,3.8c-4.41,5.39-12.61,14.82-22.9,14.82c-2.33,0-3.43-2.33-3.43-3.31
		c0-0.86,0.49-1.71,2.08-2.08c8.08-1.84,18.37-9.06,18.37-15.43c0-2.69-2.82-4.65-5.39-4.65c-5.65,0-12.92,4.24-17.74,12.8
		c-4.58,5.45-12.11,12.18-16.42,12.18c-2.33,0-3.67-1.71-3.67-4.78c0-2.57,1.71-9.31,3.67-12.74c6.49-5.14,12.37-10.29,19.23-18.98
		c8.82-11.27,10.53-18.74,10.53-22.29c0-2.57-1.96-5.02-4.9-5.02c-6.98,0-12.49,6-19.84,18.49c-6.86,11.76-15.06,30.86-15.06,41.15
		c0,5.88,4.29,9.43,9.18,9.43c3.98,0,9.12-3.43,13.87-7.67c0.32,4.91,3.6,7.79,7.44,7.79c13.59,0,23.51-10.53,29.27-17.64
		c1.47-1.84,2.08-2.69,2.08-4.04C220.27,120.9,219.41,120.29,218.31,120.29z M178.14,95.8c6.12-10.9,11.51-15.19,12.98-15.19
		c0.86,0,1.22,0.37,1.22,1.1c0,2.57-2.45,8.08-8.94,16.66c-5.02,6.74-10.16,11.88-12.61,13.84
		C171.53,109.51,173.12,104.74,178.14,95.8z M201.04,118.94c0.73,0,0.98,0.49,0.98,1.22c0,2.08-8.33,8.08-12.74,8.94
		C191.61,125.44,198.1,118.94,201.04,118.94z"/>
	<path class="st0" d="M56.63,124.35c-1.56,0-2.35,1.13-2.35,2.35c0,0.52-0.17,0.61-0.78,0.61c-1.13,0-3.13-1.04-4.87-1.04
		c-2.17,0-3.39,1.65-4.87,4c-1.04-3.3-1.91-6.7-2.09-10.17c6.35-2.7,15.83-8.43,15.83-17.04c0-3.22-1.91-5.3-6.35-5.3
		c-7.83,0-13.65,9.3-13.74,19.65c-6.26,2.7-15.22,7.83-15.22,16.78c0,7.04,4.78,11.39,10.17,11.39c5.48,0,8.26-2.96,10.44-6.26
		c2.26,3.65,4.87,6.09,8.7,6.09c4.61,0,5.74-1.83,5.74-3.39c0-1.22-0.78-2-1.91-2c-1.65,0-2,1.57-3.3,1.57
		c-2.26,0-4.61-2.17-6.61-6.17c0.7-1.57,2.35-5.22,3.91-5.22c1.91,0,3.22,1.04,5.13,1.04c2.44,0,4.7-1.74,4.7-4.43
		C59.15,125.39,58.19,124.35,56.63,124.35z M50.97,101.13c1.22,0,2.35,0.96,2.35,2.35c0,6.61-5.65,9.57-11.65,12.52
		C42.02,107.57,46.45,101.13,50.97,101.13z M33.06,141.57c-3.83,0-6.61-3.13-6.61-7.57c0-6.87,7.04-10.61,11.13-12.35
		c0.35,3.83,1.22,8.96,2.96,13.39C38.8,138.26,36.28,141.57,33.06,141.57z"/>
</g>
</svg>
